<?xml version="1.0" standalone="no"?>
<!DOCTYPE svg PUBLIC "-//W3C//DTD SVG 20010904//EN"
 "http://www.w3.org/TR/2001/REC-SVG-20010904/DTD/svg10.dtd">
<svg version="1.0" xmlns="http://www.w3.org/2000/svg"
 width="256.000000pt" height="256.000000pt" viewBox="0 0 256.000000 256.000000"
 preserveAspectRatio="xMidYMid meet">
<metadata>
Created by potrace 1.16, written by Peter Selinger 2001-2019
</metadata>
<g transform="translate(0.000000,256.000000) scale(0.100000,-0.100000)"
fill="#000000" stroke="none">
<path d="M107 2352 c-42 -46 -36 -55 324 -467 187 -214 357 -408 377 -430 21
-22 68 -74 104 -115 l67 -76 -112 -124 c-62 -69 -262 -296 -444 -505 -442
-505 -441 -475 -12 -475 213 0 289 3 301 12 9 7 221 249 472 537 399 458 456
528 456 556 0 28 -57 98 -456 556 -251 288 -463 530 -472 537 -12 9 -88 12
-302 12 -265 0 -288 -1 -303 -18z m684 -183 c68 -78 129 -147 134 -153 10 -11
614 -705 641 -736 12 -14 -27 -62 -283 -355 -162 -187 -312 -358 -332 -381
-20 -23 -92 -105 -160 -183 l-123 -141 -255 0 c-156 0 -253 4 -251 9 3 9 503
582 777 891 66 74 120 140 121 145 0 6 -53 69 -118 140 -181 202 -777 885
-780 896 -2 5 95 9 251 9 l255 0 123 -141z"/>
<path d="M946 2348 c-28 -40 -19 -65 51 -146 364 -418 619 -709 674 -770 37
-40 85 -94 107 -120 l40 -48 -60 -69 c-33 -39 -83 -95 -112 -125 -143 -155
-702 -804 -711 -826 -7 -19 -5 -32 6 -52 l15 -27 291 -3 c291 -2 292 -2 316
20 14 13 164 183 334 378 170 195 370 426 446 513 119 137 137 162 137 192 0
31 -23 62 -207 272 -114 131 -311 357 -437 503 -127 146 -245 280 -262 297
l-32 33 -290 0 c-289 0 -291 0 -306 -22z m1015 -555 c249 -284 452 -522 452
-528 0 -6 -203 -244 -452 -528 l-452 -517 -254 0 c-140 0 -255 2 -255 5 0 4
107 128 237 278 131 150 250 286 264 302 14 17 82 93 151 170 69 77 155 174
191 215 l66 75 -22 25 c-13 14 -57 63 -98 110 -40 47 -79 90 -85 95 -6 6 -49
53 -94 105 -45 52 -94 109 -109 125 -199 226 -501 575 -501 580 0 3 115 5 255
5 l254 0 452 -517z"/>
</g>
</svg>
